<?xml version="1.0" encoding="iso-8859-1"?>
<!-- Uploaded to: SVG Repo, www.svgrepo.com, Generator: SVG Repo Mixer Tools -->
<!DOCTYPE svg PUBLIC "-//W3C//DTD SVG 1.1//EN" "http://www.w3.org/Graphics/SVG/1.1/DTD/svg11.dtd">
<svg fill="#000000" height="800px" width="800px" version="1.1" id="Capa_1" xmlns="http://www.w3.org/2000/svg" xmlns:xlink="http://www.w3.org/1999/xlink" 
	 viewBox="0 0 472 472" xml:space="preserve">
<g>
	<path d="M471.992,314.422c-0.004-0.28-0.025-0.561-0.077-0.84l-0.016-0.088l-0.001-0.003L431.934,99.582
		c-0.442-2.366-2.508-4.082-4.915-4.082H44.98c-2.407,0-4.473,1.716-4.915,4.082L0.102,313.491c0,0,0,0.002-0.001,0.003
		l-0.016,0.088c-0.052,0.279-0.073,0.56-0.077,0.84c0,0.026-0.008,0.051-0.008,0.078v30c0,2.762,2.238,5,5,5h62v22
		c0,2.762,2.238,5,5,5h73c2.762,0,5-2.238,5-5v-22h172v22c0,2.762,2.238,5,5,5h73c2.762,0,5-2.238,5-5v-22h62c2.762,0,5-2.238,5-5
		v-30C472,314.474,471.993,314.449,471.992,314.422z M49.133,105.5h373.733l38.113,204H11.021L49.133,105.5z M140,366.5H77v-17h63
		V366.5z M395,366.5h-63v-17h63V366.5z M462,339.5H10v-20h452V339.5z"/>
	<path d="M295.605,155.909c-0.738-13.127-11.615-23.409-24.762-23.409c-13.776,0-26.497,5.773-35.425,15.619
		c-3.665-9.184-12.638-15.619-23.035-15.619c-13.776,0-26.497,5.773-35.425,15.619c-3.665-9.184-12.638-15.619-23.035-15.619
		c-13.774,0-26.495,5.772-35.422,15.616c-3.666-9.183-12.638-15.616-23.036-15.616c-23.731,0-44.123,17.721-47.434,41.221
		l-8.646,61.392c-1.751,12.433,1.968,24.999,10.204,34.476c8.235,9.477,20.159,14.912,32.715,14.912h24.868
		c4.842,0,9.524-1.879,13.057-5.16c6.27,3.384,13.285,5.16,20.534,5.16h24.87c4.943,0,9.576-1.869,13.08-5.147
		c6.264,3.375,13.27,5.147,20.51,5.147h24.87c4.944,0,9.576-1.869,13.08-5.147c6.265,3.375,13.277,5.147,20.552,5.147l12.855-0.108
		c8.417-0.071,16.227-3.489,21.989-9.623s8.687-14.14,8.233-22.544L295.605,155.909z M244.78,271.9
		c-0.784-0.33-1.554-0.69-2.312-1.08c0.635-2.113,0.913-4.332,0.788-6.592l-0.459-8.141l46.661-28.508l0.854,15.822L244.78,271.9z
		 M186.239,271.864c-0.756-0.32-1.499-0.668-2.231-1.044c0.635-2.113,0.913-4.332,0.788-6.591l-0.463-8.222l46.83-28.611
		l0.891,15.794L186.239,271.864z M127.927,271.929c-0.815-0.34-1.614-0.715-2.401-1.121c0.635-2.117,0.932-4.339,0.805-6.577
		l-0.455-8.074l46.834-28.614l0.891,15.798L127.927,271.929z M57.161,180.605l50.762-31.27c1.332,2.078,2.173,4.505,2.321,7.133
		l0.407,7.226l-55.963,34.468L57.161,180.605z M166.147,148.983c1.469,2.154,2.398,4.711,2.554,7.492l0.38,6.739l-46.817,28.833
		l-0.873-15.495L166.147,148.983z M224.534,148.873c1.513,2.176,2.468,4.775,2.627,7.602l0.372,6.589l-46.814,28.831l-0.873-15.494
		L224.534,148.873z M283.036,148.932c1.487,2.161,2.427,4.732,2.584,7.527l0.361,6.697l-46.798,28.821l-0.873-15.495
		L283.036,148.932z M288.846,216.236l-46.688,28.524l-0.822-14.574l46.71-28.762L288.846,216.236z M122.904,203.398l46.818-28.833
		l0.875,15.512l-46.819,28.829L122.904,203.398z M229.048,189.927l-46.816,28.827l-0.874-15.508l46.815-28.832L229.048,189.927z
		 M124.417,230.256l46.82-28.83l0.834,14.79l-46.833,28.613L124.417,230.256z M182.872,230.104l46.816-28.827l0.834,14.791
		l-46.829,28.611L182.872,230.104z M287.433,190.058l-46.736,28.778l-0.874-15.507l46.772-28.805L287.433,190.058z M52.877,211.021
		l58.413-35.977l0.874,15.514l-61.762,38.033L52.877,211.021z M270.844,142.5c1.044,0,2.061,0.116,3.045,0.322l-36.219,22.311
		l-0.155-2.743C244.153,150.098,256.798,142.5,270.844,142.5z M212.384,142.5c1.008,0,1.993,0.104,2.946,0.298l-36.125,22.253
		l-0.15-2.661C185.693,150.098,198.338,142.5,212.384,142.5z M153.924,142.5c1.073,0,2.116,0.125,3.126,0.342l-36.298,22.359
		l-0.158-2.809C127.231,150.099,139.877,142.5,153.924,142.5z M95.466,142.5c1.279,0,2.516,0.178,3.702,0.485l-39.185,24.138
		C65.439,152.648,79.493,142.5,95.466,142.5z M48.973,241.217l63.831-39.307l0.833,14.787l-61.881,37.799
		C49.935,250.324,48.98,245.808,48.973,241.217z M57.138,263.028c-0.019-0.022-0.037-0.045-0.056-0.068l57.193-34.936l0.891,15.811
		L69.96,272.128C65.077,270.182,60.667,267.089,57.138,263.028z M113.851,271.623c-1.754,1.855-4.125,2.877-6.678,2.877H85.018
		l30.79-19.27l0.539,9.564C116.49,267.343,115.604,269.768,113.851,271.623z M173.414,270.192c-1.7,2.697-4.609,4.308-7.78,4.308
		h-22.967l31.578-19.764l0.567,10.05C174.918,266.711,174.437,268.578,173.414,270.192z M231.874,270.192
		c-1.7,2.697-4.609,4.308-7.78,4.308h-23.218l31.82-19.916l0.576,10.202C233.378,266.712,232.896,268.578,231.874,270.192z
		 M270.497,274.392l-10.999,0.093l31.327-19.607c-0.226,4.869-2.155,9.438-5.543,13.044
		C281.407,272.046,276.156,274.344,270.497,274.392z"/>
	<path d="M444.268,249.379l-2.245-17.281C440.608,221.21,431.262,213,420.282,213h-86.065c-10.979,0-20.326,8.21-21.74,19.098
		l-2.245,17.281c-0.121,0.932-0.524,25.016-0.49,26.274c0.166,6.165,2.476,12.131,6.602,16.826
		c5.039,5.733,12.306,9.021,19.937,9.021h81.94c7.632,0,14.898-3.288,19.938-9.021c4.235-4.82,6.557-10.978,6.61-17.316
		C444.777,274.067,444.389,250.311,444.268,249.379z M434.352,250.668c0.684,5.264-0.933,10.569-4.437,14.557
		c-3.503,3.988-8.556,6.275-13.863,6.275h-77.604c-5.308,0-10.36-2.287-13.864-6.274c-3.503-3.988-5.12-9.294-4.437-14.558
		l1.192-9.178h111.819L434.352,250.668z M334.217,223h86.065c5.314,0,9.916,3.539,11.409,8.49H322.808
		C324.301,226.539,328.903,223,334.217,223z M430.646,285.877c-3.141,3.573-7.67,5.623-12.426,5.623h-81.94
		c-4.756,0-9.284-2.05-12.426-5.623c-2.774-3.158-4.227-7.238-4.11-11.402c5.151,4.496,11.785,7.025,18.705,7.025h77.604
		c6.92,0,13.553-2.529,18.705-7.025C434.874,278.638,433.421,282.719,430.646,285.877z"/>
	<path d="M364.886,198.5c20.535,0,34.333-10.225,34.333-25.442c0-15.032-25.947-37.225-31.149-41.521
		c-1.848-1.525-4.52-1.525-6.367,0c-5.202,4.297-31.15,26.489-31.15,41.521C330.552,188.275,344.35,198.5,364.886,198.5z
		 M364.898,141.951c5.503,4.77,9.997,9.286,13.576,13.367c-6.866,2.731-14.23,0.442-17.488-0.881
		c-2.691-1.093-5.773,0.325-6.658,3.152c-0.796,2.541,0.682,5.235,3.156,6.219c2.978,1.184,8.151,2.811,14.078,2.811
		c4.21,0,8.8-0.821,13.252-3.205c2.976,4.394,4.404,7.765,4.404,9.644c0,11.398-13.108,15.442-24.333,15.442
		c-10.964,0-23.717-3.862-24.306-14.662c3.41,4.155,10.12,9.277,22.671,9.889c0.083,0.004,0.165,0.006,0.247,0.006
		c2.853,0,5.197-2.413,4.983-5.384c-0.181-2.518-2.33-4.486-4.851-4.616c-11.544-0.594-15.441-5.884-16.582-8.136
		c-0.011-0.022-0.022-0.044-0.033-0.066c-0.964-1.94-0.623-4.267,0.732-5.957C352.558,153.573,359.053,147.083,364.898,141.951z"/>
</g>
</svg>