<?xml version="1.0" ?>
<!DOCTYPE svg  PUBLIC '-//W3C//DTD SVG 1.1//EN'  'http://www.w3.org/Graphics/SVG/1.1/DTD/svg11.dtd'>
<!-- Uploaded to: SVG Repo, www.svgrepo.com, Generator: SVG Repo Mixer Tools -->
<svg fill="#000000" width="800px" height="800px" viewBox="0 0 64 64" style="fill-rule:evenodd;clip-rule:evenodd;stroke-linecap:round;stroke-linejoin:round;stroke-miterlimit:1.5;" version="1.1" xml:space="preserve" xmlns="http://www.w3.org/2000/svg" xmlns:serif="http://www.serif.com/" xmlns:xlink="http://www.w3.org/1999/xlink">
<g transform="matrix(1,0,0,1,-168,-168)">
<g id="Gyoza" transform="matrix(1,0,0,1,-188.333,168)">
<rect height="64" style="fill:none;" width="64" x="356.333" y="0"/>
<g transform="matrix(1,0,0,1,190.333,-165)">
<path d="M224,210L172,210C172,185 190,184 198,184C198.006,184 198.013,183.999 198.019,183.999C206,184 224,185.39 224,210Z" style="fill:rgb(234,222,202);stroke:rgb(34,32,77);stroke-width:2px;"/>
</g>
<g transform="matrix(1,0,0,1,190.333,-165)">
<path d="M224,210L172,210C172,200 190,198 198,198C198.006,198 198.013,198 198.019,198C207,198 224,200.156 224,210Z" style="fill:rgb(248,191,80);stroke:rgb(34,32,77);stroke-width:2px;"/>
</g>
<g transform="matrix(1,0,0,1,110.293,10)">
<path d="M277,29L278,28" style="fill:none;stroke:rgb(34,32,77);stroke-width:2px;"/>
</g>
<g transform="matrix(1,0,0,1,119.293,11)">
<path d="M277,29L278,28" style="fill:none;stroke:rgb(34,32,77);stroke-width:2px;"/>
</g>
<g transform="matrix(1,0,0,1,101.293,11)">
<path d="M277,29L278,28" style="fill:none;stroke:rgb(34,32,77);stroke-width:2px;"/>
</g>
<g transform="matrix(1.0125,0,0,1,189.983,-170)">
<path d="M188,190C188,190 192.444,197 188,203.5" style="fill:none;stroke:rgb(34,32,77);stroke-width:1.99px;"/>
</g>
<g transform="matrix(-1.0125,0,0,1,586.683,-170)">
<path d="M188,190C188,190 192.484,197 188.04,203.5" style="fill:none;stroke:rgb(34,32,77);stroke-width:1.99px;"/>
</g>
<g transform="matrix(0.784,0,0,1,228.429,-169)">
<path d="M181,193.5C181,193.5 186.276,199 182.276,204.5" style="fill:none;stroke:rgb(34,32,77);stroke-width:2.23px;"/>
</g>
<g transform="matrix(-0.784,0,0,1,548.237,-169)">
<path d="M181,193.5C181,193.5 186.276,199 182.276,204.5" style="fill:none;stroke:rgb(34,32,77);stroke-width:2.23px;"/>
</g>
</g>
</g>
</svg>