<?xml version="1.0" encoding="iso-8859-1"?>
<!-- Uploaded to: SVG Repo, www.svgrepo.com, Generator: SVG Repo Mixer Tools -->
<svg fill="#000000" height="800px" width="800px" version="1.1" id="Layer_1" xmlns="http://www.w3.org/2000/svg" xmlns:xlink="http://www.w3.org/1999/xlink" 
	 viewBox="0 0 512 512" xml:space="preserve">
<g>
	<g>
		<path d="M150.264,278.268h-33.39c-9.217,0-16.695,7.473-16.695,16.695c0,9.222,7.477,16.695,16.695,16.695h33.39
			c9.217,0,16.695-7.473,16.695-16.695C166.96,285.74,159.481,278.268,150.264,278.268z"/>
	</g>
</g>
<g>
	<g>
		<path d="M383.997,278.268h-33.39c-9.217,0-16.695,7.473-16.695,16.695c0,9.222,7.477,16.695,16.695,16.695h33.39
			c9.217,0,16.695-7.473,16.695-16.695C400.692,285.74,393.214,278.268,383.997,278.268z"/>
	</g>
</g>
<g>
	<g>
		<path d="M511.712,13.656c-1.675-9.064-10.381-15.091-19.468-13.358L13.649,89.338C4.583,91.023-1.395,99.74,0.291,108.805
			c1.489,8.033,8.51,13.647,16.391,13.647c1.011,0,2.044-0.092,3.076-0.288l478.595-89.041
			C507.419,31.437,513.397,22.72,511.712,13.656z"/>
	</g>
</g>
<g>
	<g>
		<path d="M511.884,114.951c-1.065-9.158-9.369-15.734-18.51-14.652L14.779,155.95c-9.162,1.065-15.728,9.353-14.663,18.51
			c0.99,8.506,8.206,14.766,16.565,14.766c0.641,0,1.293-0.038,1.946-0.115l478.595-55.651
			C506.384,132.396,512.949,124.109,511.884,114.951z"/>
	</g>
</g>
<g>
	<g>
		<path d="M367.302,211.487c-50.928,0-94.289,16.951-116.866,42.515c-22.577-25.564-65.938-42.515-116.866-42.515
			c-74.906,0-133.561,36.618-133.561,83.476v133.561C0.008,475.382,58.664,512,133.569,512c50.928,0,94.289-16.951,116.866-42.515
			C273.013,495.049,316.374,512,367.302,512c74.906,0,133.561-36.618,133.561-83.476V294.963
			C500.863,248.105,442.208,211.487,367.302,211.487z M133.569,345.048c-58.99,0-100.171-26.378-100.171-50.086
			c0-23.707,41.18-50.085,100.171-50.085c46.523,0,82.029,16.473,94.94,35.06c3.451,4.897,5.231,10.017,5.231,15.026
			C233.74,318.67,192.559,345.048,133.569,345.048z M367.302,345.048c-58.99,0-100.171-26.378-100.171-50.086
			c0-5.565,2.226-11.241,6.568-16.695c13.689-17.92,48.414-33.39,93.603-33.39c45.189,0,79.913,15.471,93.715,33.39
			c4.231,5.454,6.457,11.13,6.457,16.695C467.473,318.67,426.291,345.048,367.302,345.048z"/>
	</g>
</g>
</svg>