<?xml version="1.0" encoding="iso-8859-1"?>
<!-- Uploaded to: SVG Repo, www.svgrepo.com, Generator: SVG Repo Mixer Tools -->
<!DOCTYPE svg PUBLIC "-//W3C//DTD SVG 1.1//EN" "http://www.w3.org/Graphics/SVG/1.1/DTD/svg11.dtd">
<svg fill="#000000" height="800px" width="800px" version="1.1" id="Capa_1" xmlns="http://www.w3.org/2000/svg" xmlns:xlink="http://www.w3.org/1999/xlink" 
	 viewBox="0 0 419.305 419.305" xml:space="preserve">
<g>
	<path d="M54.863,174.272c0.735,1.398,2.123,2.386,3.685,2.621c1.73,0.261,3.247-0.717,4.967-0.684
		c3.01,0.058,5.7,2.201,6.458,5.111c0.402,1.542,0.152,3.021,1.117,4.406c0.955,1.37,2.573,2.187,4.244,2.139
		c1.948-0.056,3.3-1.539,5.159-1.918c1.589-0.324,3.278-0.058,4.691,0.735c1.385,0.777,2.314,1.958,2.977,3.376
		c0.695,1.487,1.891,2.616,3.526,2.985c1.605,0.362,3.337-0.12,4.533-1.246c0.591-0.556,0.987-1.275,1.572-1.841
		c0.609-0.59,1.325-1.066,2.106-1.394c1.568-0.66,3.364-0.706,4.963-0.124c1.667,0.606,2.604,1.748,3.664,3.085
		c2.056,2.597,6.15,2.505,8.046-0.231c0.482-0.695,0.717-1.519,1.189-2.223c0.488-0.728,1.117-1.358,1.844-1.848
		c1.465-0.988,3.298-1.371,5.037-1.05c0.948,0.175,1.852,0.557,2.642,1.11c0.814,0.57,1.337,1.372,2.07,2.018
		c1.529,1.347,3.41,1.425,5.282,0.891l0.324-0.092c1.331-0.371,2.467-1.3,3.099-2.528c0.637-1.237,0.997-2.404,2.045-3.396
		c2.117-2.005,5.251-2.384,7.833-1.082c2.62,1.322,6.115,0.46,7.806-2.022c0.783-1.149,0.78-2.541,1.368-3.771
		c0.526-1.101,1.354-2.052,2.371-2.727c1.226-0.814,2.728-1.226,4.198-1.109c1.841,0.146,3.479,0.006,4.846-1.405l0.309-0.318
		c1.276-1.348,1.395-2.911,1.258-4.66c-0.114-1.461,0.31-2.949,1.117-4.166c0.858-1.293,2.01-1.889,3.277-2.685
		c1.317-0.827,2.093-2.179,2.313-3.697c0.708-4.881-0.481-9.855-3.097-14.004c-5.247-8.319-14.998-12.876-24.16-15.394
		c-13.439-3.692-27.899-3.75-41.607-1.684c-13.396,2.019-26.914,6.207-38.28,13.739c-9.76,6.467-19.572,17.235-16.714,29.905
		C53.347,170.895,54.005,172.637,54.863,174.272C56.031,176.495,53.689,172.037,54.863,174.272z M160.339,163.689
		c-5.268,0.915-9.737,4.276-12.102,8.979c-6.03-1.271-12.412,0.952-16.359,5.68c-1.299-0.762-2.697-1.341-4.157-1.728l-2.6-14.999
		l37.528-16.794c2.307,2.183,4.147,5.014,4.334,8.261C163.506,155.637,161.112,159.454,160.339,163.689z M152.112,138.588
		l-32.744,14.653l-31.965-12.032C112.966,131.809,135.882,132.392,152.112,138.588z M75.413,147.382l39.679,14.936l2.56,14.77
		c-2.212,0.804-4.231,2.047-5.917,3.677c-5.428-3.556-12.63-3.612-18.125-0.168c-3.899-3.82-9.56-5.51-14.92-4.487
		c-2.826-6.202-9.305-10.205-16.121-9.883c-1-6.457,4.035-12.144,9.018-16.101C72.561,149.352,75.094,147.591,75.413,147.382z"/>
	<path d="M254.927,121.852c2.999,0.142,5.575,2.278,6.289,5.19c0.32,1.305,0.235,2.659-0.204,3.925
		c-0.524,1.515-0.668,2.974,0.095,4.45c0.694,1.342,1.996,2.318,3.48,2.604c1.667,0.322,3.275-0.361,4.967,0.072
		c2.885,0.739,4.955,3.309,5.119,6.27c0.085,1.525,0.326,2.863,1.447,4.001c1.081,1.098,2.652,1.644,4.181,1.454
		c1.653-0.206,2.907-1.416,4.551-1.712c1.581-0.284,3.241,0.002,4.63,0.809c1.22,0.709,2.201,1.801,2.779,3.088
		c0.605,1.348,0.599,2.782,1.579,3.969c0.906,1.097,2.271,1.764,3.694,1.805c1.753,0.05,2.859-0.804,4.132-1.861
		c2.666-2.212,6.749-2.068,9.197,0.401c0.615,0.62,1.106,1.361,1.443,2.166c0.317,0.757,0.468,1.536,0.921,2.235
		c0.96,1.481,2.453,2.098,4.14,2.311l0.368,0.047c1.41,0.183,2.87-0.25,3.945-1.183c1.04-0.902,1.849-1.784,3.188-2.267
		c2.668-0.962,5.622-0.179,7.483,1.95c0.943,1.079,1.924,1.897,3.391,2.123c1.319,0.203,2.98,0.043,4.184-0.553
		c1.273-0.63,1.8-1.73,2.722-2.722c0.938-1.01,2.188-1.726,3.533-2.029c1.573-0.355,3.231-0.122,4.65,0.639
		c1.571,0.843,3.156,1.253,4.881,0.517l0.384-0.162c1.632-0.707,2.427-2.047,2.944-3.665c0.477-1.492,1.475-2.788,2.799-3.626
		c1.469-0.931,2.942-0.786,4.53-1.236c1.862-0.527,2.86-1.983,3.695-3.623c2.271-4.461,2.725-9.545,1.573-14.388
		c-2.504-10.521-11.127-18.833-19.684-24.815c-12.277-8.582-26.847-13.99-41.515-16.713c-8.032-1.491-16.249-2.159-24.411-1.645
		c-6.586,0.414-13.234,1.584-19.339,4.161c-4.762,2.009-9.259,4.957-12.39,9.132c-1.41,1.88-2.513,3.984-3.232,6.223
		c-0.567,1.767-0.887,3.608-0.953,5.463c-0.063,1.745-0.082,3.628,0.976,5.108C251.976,121,253.409,121.781,254.927,121.852
		C255.752,121.891,252.419,121.735,254.927,121.852z M361.682,141.487c-4.197,0.99-7.89,3.572-10.253,7.172
		c-5.119-1.185-10.639,0.148-14.644,3.549c-5.057-3.526-11.798-3.966-17.278-1.147c-4.429-5.955-12.555-8.28-19.479-5.615
		c-0.052-0.078-0.111-0.15-0.164-0.227c2.228-5.247,3.223-10.703,3.395-16.038l56.89,1.41
		C363.799,136.476,361.763,141.262,361.682,141.487z M351.564,120.374l-48.865-1.211c-1.051-7.662-3.324-14.535-5.316-19.444
		c15.655,1.077,31.558,5.809,44.989,13.993C345.606,115.682,348.707,117.886,351.564,120.374z M261.123,110.932
		c3.012-6.201,12.473-10.38,25.327-11.252c3.096,6.61,10.059,24.16,5.108,39.239c-2.631-0.91-5.447-1.153-8.169-0.716
		c-2.1-5.037-6.654-8.8-11.987-9.948c-0.158-5.834-3.427-11.275-8.405-14.173c-0.818-0.476-1.682-0.884-2.586-1.213
		C260.428,112.8,260.85,111.493,261.123,110.932z"/>
	<path d="M326.075,65.558c-27.09-8.365-54.578-9.945-77.398-4.448c-23.744,5.72-39.768,18.415-45.117,35.747
		c-1.608,5.209-2.161,10.716-1.688,16.354c-0.942-0.675-1.897-1.342-2.88-1.993c-18.237-12.073-42.107-18.722-67.213-18.722
		c-7.462,0-15.112,0.576-22.74,1.714c-31.182,4.649-59.577,15.719-79.955,31.168C10.593,139.398,0.488,155.656,0,171.838
		c-0.07,2.312,7.719,130.997,7.719,130.997c-0.054,2.254,0.083,4.53,0.42,6.769c2.759,18.508,18.056,33.771,43.074,42.978
		c15.89,5.848,34.578,8.833,54.448,8.833c10.141,0,20.591-0.778,31.128-2.35c32.318-4.82,58.602-13.548,76.01-25.237
		c16.439-11.038,25.182-24.784,25.659-40.111c11.309,6.793,24.055,12.457,37.385,16.57c16.248,5.015,33.521,7.565,50.14,7.565
		c10.828,0,21.382-1.084,31.185-3.275c26.017-5.817,43.95-18.914,49.203-35.931c0.635-2.056,1.313-6.721,1.505-8.102
		c0.012-0.082,0.021-0.163,0.028-0.245c0,0,10.885-114.733,11.128-116.732C423.336,118.063,376.011,80.969,326.075,65.558z
		 M213.114,99.806c4.268-13.824,17.729-24.114,37.904-28.974c21.101-5.081,46.709-3.562,72.106,4.28
		c54.581,16.846,93.489,54.424,84.963,82.059c-4.166,13.499-19.412,24.115-41.83,29.127c-23.197,5.186-50.969,3.694-76.192-4.09
		c-25.634-7.921-48.448-21.762-62.778-38.037c-2.697-6.919-6.911-13.521-12.479-19.584
		C211.315,115.835,210.738,107.502,213.114,99.806z M35.126,133.347c19.063-14.453,45.837-24.84,75.388-29.246
		c7.142-1.064,14.296-1.604,21.266-1.604c50.3,0,84.485,27.439,88.569,54.023l0.377,6.379c-0.4,12.093-7.498,22.863-21.22,32.077
		c-16.186,10.868-41.053,19.045-71.913,23.647c-9.924,1.479-19.867,2.23-29.553,2.23c-47.854,0-83.928-17.796-87.728-43.275
		C8.115,162.852,16.927,147.144,35.126,133.347z M207.224,325.526c-16.184,10.868-41.05,19.045-71.909,23.648
		c-29.557,4.406-58.197,2.285-80.648-5.978c-21.344-7.854-34.332-20.239-36.607-34.894L11.78,202.096
		c5.266,5.772,12.217,10.893,20.779,15.208c17.337,8.737,40.591,13.549,65.479,13.549c10.178,0,20.617-0.787,31.027-2.34
		c32.319-4.819,58.604-13.546,76.014-25.236c7.181-4.821,12.893-10.159,17.091-15.919l5.925,99.869
		C230.279,301.874,223.256,314.76,207.224,325.526z M396.816,275.695c-8.904,28.844-66.265,41.011-118.023,25.037
		c-14.943-4.611-29.077-11.268-41.043-19.308c0,0-6.986-119.377-6.989-119.834c14.972,12.908,34.443,23.403,56.354,30.172
		c16.253,5.016,33.529,7.567,50.15,7.567c10.825,0,21.375-1.083,31.174-3.273c15.959-3.567,28.869-9.878,37.684-18.151
		l-8.168,91.378C397.612,271.715,397.087,274.818,396.816,275.695z"/>
</g>
</svg>