<?xml version="1.0" ?><!-- Uploaded to: SVG Repo, www.svgrepo.com, Generator: SVG Repo Mixer Tools -->
<svg fill="#000000" width="800px" height="800px" viewBox="0 0 64 64" data-name="Layer 1" id="Layer_1" xmlns="http://www.w3.org/2000/svg"><path d="M60,17H31V16a2.9869,2.9869,0,0,0-5-2.22,2.9533,2.9533,0,0,0-4,0A2.9869,2.9869,0,0,0,17,16v1H10a2.9869,2.9869,0,0,0-2.22,5A2.9869,2.9869,0,0,0,10,27h2.7578l-2.3789,2.3789a3,3,0,1,0,4.2422,4.2422L17,31.2422V37H4a1,1,0,0,0-1,1,9.01,9.01,0,0,0,8,8.941V48a3.0033,3.0033,0,0,0,3,3H34a3.0033,3.0033,0,0,0,3-3V46.941A9.01,9.01,0,0,0,45,38a1,1,0,0,0-1-1H31V27H60a1,1,0,0,0,1-1V18A1,1,0,0,0,60,17Zm-1,2v2H31V19ZM24,15a1.0009,1.0009,0,0,1,1,1V37H23V16A1.0009,1.0009,0,0,1,24,15ZM10,19h7v2H10a1,1,0,0,1,0-2ZM9,24a1.0009,1.0009,0,0,1,1-1h7v2H10A1.0009,1.0009,0,0,1,9,24Zm4.2065,8.207a1.0209,1.0209,0,0,1-1.4135,0,1.0012,1.0012,0,0,1,0-1.414L15.5859,27H17v1.4141ZM19,28.8281V16a1,1,0,0,1,2,0V37H19ZM35,48a1.0006,1.0006,0,0,1-1,1H14a1.0009,1.0009,0,0,1-1-1V47H35Zm1-3H12a7.0109,7.0109,0,0,1-6.9287-6H42.9287A7.0106,7.0106,0,0,1,36,45Zm-9-8V16a1,1,0,0,1,2,0V37ZM59,25H31V23H59Z"/></svg>